<svg width="51" height="51" viewBox="0 0 51 51" fill="none" xmlns="http://www.w3.org/2000/svg">
<g clip-path="url(#clip0_140_16)">
<path d="M48.9532 0.274576L1.03689 12.7743C0.578666 12.8992 0.255859 13.3054 0.255859 13.7846V49.2C0.255859 49.7727 0.724573 50.2419 1.29773 50.2419H49.214C49.7867 50.2419 50.2559 49.7732 50.2559 49.2L50.2554 20.0345C50.2554 19.4618 49.7867 18.9926 49.2135 18.9926L9.42326 18.9931L49.4845 8.54536C49.9327 8.42044 50.2555 8.00369 50.2555 7.53498V1.28526C50.2555 0.96245 50.1096 0.660138 49.8493 0.462255C49.5994 0.264372 49.2656 0.191412 48.9533 0.274858L48.9532 0.274576ZM48.1721 48.1591H2.33955V27.3259H48.1709L48.1721 48.1591ZM40.8806 21.076H48.1721V25.2426H40.8806V21.076ZM31.5057 21.076H38.7972V25.2426H31.5057V21.076ZM21.0894 21.076H29.4225V25.2426H21.0894V21.076ZM11.7146 21.076H19.0061V25.2426H11.7146V21.076ZM9.63135 21.076V25.2426H2.33979V21.076H9.63135ZM10.6732 16.5138L2.34018 18.691V14.5975L10.6732 12.4203V16.5138ZM21.0895 13.795L12.7564 15.9722V11.8787L21.0895 9.70146V13.795ZM31.5057 11.0762L23.1727 13.2534V9.15985L31.5057 6.98266V11.0762ZM40.8806 8.62861L33.589 10.5349V6.44141L40.8806 4.53509V8.62861ZM48.1721 6.73279L42.9638 8.087V3.99348L48.1721 2.63926V6.73279Z" fill="white"/>
</g>
<defs>
<clipPath id="clip0_140_16">
<rect width="51" height="51" fill="white"/>
</clipPath>
</defs>
</svg>
