<svg width="51" height="51" viewBox="0 0 51 51" fill="none" xmlns="http://www.w3.org/2000/svg">
<g clip-path="url(#clip0_140_2)">
<path d="M1.31371 32.5636H6.52219V49.231C6.52219 49.8037 6.99091 50.2729 7.56408 50.2729H44.0227C44.5954 50.2729 45.0646 49.8042 45.0646 49.231V40.2832L47.4502 42.6688L48.9188 41.2002L44.7522 37.0336L44.7513 37.0431C44.6573 36.9492 44.5534 36.8662 44.418 36.8137C44.0222 36.6469 43.5845 36.7408 43.2826 37.0431L39.116 41.2097L40.5846 42.6783L42.9803 40.2827V48.1892H8.60535V46.1059H25.2728C25.8455 46.1059 26.3147 45.6372 26.3147 45.0641V38.1996L28.7003 40.5852L30.1689 39.1166L26.0023 34.9499L26.0018 34.96C25.9079 34.866 25.8039 34.7831 25.6685 34.7306C25.2832 34.5742 24.835 34.6576 24.5332 34.96L20.3665 39.1266L21.8352 40.5952L24.2308 38.1996V44.0227H8.60584V32.5643H13.8143C14.387 32.5643 14.8562 32.0956 14.8562 31.5224V19.0225C14.8562 18.4498 14.3875 17.9806 13.8143 17.9806H1.31435C0.741673 17.9806 0.272461 18.4493 0.272461 19.0225V31.5224C0.272461 32.0956 0.741185 32.5643 1.31435 32.5643L1.31371 32.5636ZM2.35511 20.0636H12.7716V30.4801L2.35511 30.4806V20.0636Z" fill="white"/>
<path d="M19.0224 17.9812C18.4497 17.9812 17.9805 18.4499 17.9805 19.0231V31.5231C17.9805 32.0957 18.4492 32.5649 19.0224 32.5649H31.5223C32.095 32.5649 32.5642 32.0962 32.5642 31.5231V19.0231C32.5642 18.4504 32.0955 17.9812 31.5223 17.9812H19.0224ZM30.4807 30.4812H20.0637V20.0642H30.4802L30.4807 30.4812Z" fill="white"/>
<path d="M36.7302 17.9812C36.1575 17.9812 35.6883 18.4499 35.6883 19.0231V31.523C35.6883 32.0957 36.157 32.5649 36.7302 32.5649H49.2302C49.8028 32.5649 50.272 32.0962 50.272 31.523V19.0231C50.272 18.4504 49.8033 17.9812 49.2302 17.9812H44.0217L44.0221 1.31496C44.0221 0.742284 43.5534 0.273071 42.9803 0.273071H7.5641C6.99142 0.273071 6.52221 0.741796 6.52221 1.31496V10.2628L4.13659 7.8772L2.66797 9.34582L6.83458 13.5124C7.1369 13.8148 7.58464 13.8977 7.96993 13.7418C8.09486 13.6898 8.2093 13.6064 8.30324 13.5124L8.31373 13.5229L12.4803 9.35631L11.0117 7.88769L8.6056 10.2628V2.35633H41.9393V4.43958H25.273C24.7004 4.43958 24.2311 4.9083 24.2311 5.48147V12.346L21.8455 9.96034L20.3769 11.429L24.5435 15.5956C24.7314 15.7939 25.0022 15.8979 25.2731 15.8979C25.4085 15.8979 25.5439 15.8769 25.6689 15.8145C25.7938 15.7625 25.9082 15.679 26.0022 15.5851L26.0127 15.5956L30.1793 11.429L28.7107 9.96035L26.315 12.346V6.52286H41.94V17.9812L36.7302 17.9812ZM48.1885 20.0644V30.4809L37.7716 30.4814V20.0644L48.1885 20.0644Z" fill="white"/>
</g>
<defs>
<clipPath id="clip0_140_2">
<rect width="51" height="51" fill="white"/>
</clipPath>
</defs>
</svg>
