<svg width="51" height="60" viewBox="0 0 51 60" fill="none" xmlns="http://www.w3.org/2000/svg">
<path d="M39.0123 50.512H4.96342C2.61179 50.512 0.668945 48.5691 0.668945 46.2175V4.80644C0.668945 2.4548 2.61179 0.511963 4.96342 0.511963H39.0123C41.3639 0.511963 43.3068 2.4548 43.3068 4.80644V46.2175C43.3068 48.5691 41.3639 50.512 39.0123 50.512ZM4.96342 2.55755C3.73633 2.55755 2.71404 3.57985 2.71404 4.80694V46.218C2.71404 47.4451 3.73633 48.4674 4.96342 48.4674H39.0123C40.2394 48.4674 41.2617 47.4451 41.2617 46.218V4.80694C41.2617 3.57985 40.2394 2.55755 39.0123 2.55755H4.96342Z" fill="white"/>
<path d="M21.9876 24.8468C19.8403 24.8468 18.0508 23.1087 18.0508 20.9099C18.0508 18.7116 19.7888 16.9731 21.9876 16.9731C24.1859 16.9731 25.9244 18.7112 25.9244 20.9099C25.9244 23.1087 24.1348 24.8468 21.9876 24.8468ZM21.9876 19.0186C20.9653 19.0186 20.0959 19.8366 20.0959 20.9103C20.0959 21.9841 20.9138 22.8021 21.9876 22.8021C23.0099 22.8021 23.8793 21.9841 23.8793 20.9103C23.8793 19.8366 23.0099 19.0186 21.9876 19.0186Z" fill="white"/>
<path d="M21.9882 5.06189C13.2459 5.06189 6.1395 12.1682 6.1395 20.9106C6.1395 26.3299 8.90023 31.1355 13.0926 33.9983L5.9351 38.5482C5.57704 38.7526 5.27046 38.9574 4.96387 39.2128C2.91888 41.0024 2.71448 44.1208 4.50361 46.1659C5.47484 47.2909 6.85525 47.8529 8.18449 47.8529C9.36046 47.8529 10.485 47.4438 11.4567 46.6258C11.7633 46.3703 12.0191 46.0634 12.2235 45.7568L19.8412 36.6055C20.5058 36.7077 21.2216 36.7588 21.9373 36.7588C30.6795 36.7588 37.786 29.6524 37.786 20.9101C37.8367 12.1683 30.7304 5.06242 21.9882 5.06242L21.9882 5.06189ZM10.6389 44.4279C10.6389 44.479 10.5878 44.479 10.5878 44.5301C10.4345 44.7345 10.2812 44.8882 10.1275 45.0415C8.95155 46.0638 7.21341 45.9616 6.19071 44.786C5.67935 44.2236 5.47497 43.5078 5.47497 42.792C5.52606 42.0252 5.83303 41.3605 6.39509 40.9003C6.54839 40.747 6.75315 40.6448 6.95754 40.4912C7.00864 40.4912 7.00864 40.4401 7.05973 40.4401L21.7841 31.0332L10.6389 44.4279ZM21.9882 34.7141H21.4768L27.8674 27.0453C28.2255 26.6362 28.174 26.023 27.8674 25.665C27.5093 25.2558 26.9473 25.2047 26.487 25.4606L14.984 32.8224C10.8939 30.4198 8.18458 25.972 8.18458 20.911C8.18458 13.2933 14.3708 7.10729 21.9883 7.10729C29.6059 7.10729 35.7919 13.2935 35.7919 20.911C35.7919 28.5285 29.6061 34.7147 21.9883 34.7147L21.9882 34.7141Z" fill="white"/>
<path d="M6.75292 5.06176C6.75292 5.82431 6.13469 6.44213 5.37256 6.44213C4.61001 6.44213 3.99219 5.82429 3.99219 5.06176C3.99219 4.29961 4.61003 3.6814 5.37256 3.6814C6.13471 3.6814 6.75292 4.29963 6.75292 5.06176Z" fill="white"/>
<path d="M39.9834 5.06176C39.9834 5.82431 39.3656 6.44213 38.603 6.44213C37.8409 6.44213 37.2227 5.82429 37.2227 5.06176C37.2227 4.29961 37.8409 3.6814 38.603 3.6814C39.3656 3.6814 39.9834 4.29963 39.9834 5.06176Z" fill="white"/>
<path d="M39.9834 45.9617C39.9834 46.7238 39.3656 47.342 38.603 47.342C37.8409 47.342 37.2227 46.7238 37.2227 45.9617C37.2227 45.1991 37.8409 44.5813 38.603 44.5813C39.3656 44.5813 39.9834 45.1991 39.9834 45.9617Z" fill="white"/>
</svg>
