<svg width="51" height="43" viewBox="0 0 51 43" fill="none" xmlns="http://www.w3.org/2000/svg">
<g clip-path="url(#clip0_144_56)">
<path d="M49.2238 34.1169H48.1819L48.1824 3.9092C48.1824 2.19068 46.7762 0.783936 45.0572 0.783936H5.47322C3.7547 0.783936 2.34796 2.19019 2.34796 3.9092V34.1169H1.30655C0.733864 34.1169 0.264648 34.5856 0.264648 35.1588C0.264648 39.1795 3.53529 42.4505 7.55643 42.4505H42.9729C46.9936 42.4505 50.2646 39.1799 50.2646 35.1588C50.2646 34.5856 49.7959 34.1169 49.2227 34.1169H49.2238ZM4.43236 3.9092C4.43236 3.33651 4.90108 2.8673 5.47426 2.8673H45.0582C45.6309 2.8673 46.1001 3.33602 46.1001 3.9092V34.1169H4.4324L4.43236 3.9092ZM42.9738 40.3681H7.55737C5.03636 40.3681 2.94297 38.5766 2.45334 36.2015L3.39081 36.201H48.0785C47.5893 38.5761 45.4955 40.3681 42.9745 40.3681L42.9738 40.3681Z" fill="white"/>
<path d="M15.8902 15.3607H11.7235C11.1509 15.3607 10.6816 15.8294 10.6816 16.4026V20.5693C10.6816 21.1419 11.1504 21.6112 11.7235 21.6112H15.8902C16.4629 21.6112 16.9321 21.1424 16.9321 20.5693V16.4026C16.9321 15.8295 16.4634 15.3607 15.8902 15.3607ZM14.8488 19.5274H12.7655V17.4441H14.8488V19.5274Z" fill="white"/>
<path d="M27.3492 15.3607H23.1825C22.6098 15.3607 22.1406 15.8294 22.1406 16.4026V20.5693C22.1406 21.1419 22.6094 21.6112 23.1825 21.6112H27.3492C27.9219 21.6112 28.3911 21.1424 28.3911 20.5693V16.4026C28.3911 15.8295 27.9223 15.3607 27.3492 15.3607ZM26.3078 19.5274H24.2245V17.4441H26.3078V19.5274Z" fill="white"/>
<path d="M38.8062 15.3607H34.6396C34.0669 15.3607 33.5977 15.8294 33.5977 16.4026V20.5693C33.5977 21.1419 34.0664 21.6112 34.6396 21.6112H38.8062C39.3789 21.6112 39.8481 21.1424 39.8481 20.5693V16.4026C39.8476 15.8295 39.3789 15.3607 38.8062 15.3607ZM37.7643 19.5274H35.681V17.4441H37.7643V19.5274Z" fill="white"/>
</g>
<defs>
<clipPath id="clip0_144_56">
<rect width="51" height="43" fill="white"/>
</clipPath>
</defs>
</svg>
