<svg width="51" height="43" viewBox="0 0 51 43" fill="none" xmlns="http://www.w3.org/2000/svg">
<g clip-path="url(#clip0_140_7)">
<path d="M49.2304 0.776001H1.31531C0.74264 0.776001 0.273438 1.24471 0.273438 1.81787V41.4006C0.273438 41.9733 0.742151 42.4425 1.31531 42.4425H49.2316C49.8042 42.4425 50.2734 41.9738 50.2734 41.4006L50.273 1.81787C50.273 1.24473 49.8042 0.776001 49.2311 0.776001H49.2304ZM26.3147 2.8592H37.7728V7.02572L26.3147 7.0262V2.8592ZM12.7738 2.8592H24.2318V7.02572L12.7738 7.0262V2.8592ZM2.35703 2.8592H10.6901V7.02572L2.35703 7.0262V2.8592ZM10.6906 40.3582H2.35703V36.1917H10.6901L10.6906 40.3582ZM24.2315 40.3582H12.7739V36.1917H24.232L24.2315 40.3582ZM37.7724 40.3582H26.3148V36.1917H37.7729L37.7724 40.3582ZM48.1891 40.3582H39.8561V36.1917H48.1891V40.3582ZM48.1891 34.108H2.35654V9.10868H48.1879L48.1891 34.108ZM48.1891 7.02621H39.8561V2.85969H48.1891V7.02621Z" fill="white"/>
<path d="M24.2298 27.7648V32.0247H26.313V27.7644C28.9274 27.3266 30.9901 25.2644 31.4273 22.65L35.6877 22.6505V20.5673H31.4273C30.9896 17.9528 28.9274 15.8901 26.313 15.4529L26.3134 11.1925H24.2302V15.4529C21.6158 15.8906 19.5531 17.9528 19.1159 20.5673L14.8555 20.5668V22.65H19.1159C19.5531 25.2649 21.6153 27.3271 24.2298 27.7648ZM21.2511 20.5667C21.6259 19.1086 22.7717 17.9732 24.2302 17.5875L24.2298 19.5253H26.313V17.588C27.7711 17.9628 28.9064 19.1086 29.2921 20.5672L27.3548 20.5667V22.6499H29.2921C28.9174 24.108 27.7715 25.2433 26.313 25.6291L26.3134 23.6917H24.2302V25.6291C22.7721 25.2543 21.6368 24.1085 21.2511 22.6499L23.1884 22.6504V20.5672L21.2511 20.5667Z" fill="white"/>
</g>
<defs>
<clipPath id="clip0_140_7">
<rect width="51" height="43" fill="white"/>
</clipPath>
</defs>
</svg>
