<svg width="51" height="45" viewBox="0 0 51 45" fill="none" xmlns="http://www.w3.org/2000/svg">
<g clip-path="url(#clip0_140_26)">
<path d="M49.2182 25.401H47.135V10.6516C47.8226 10.4537 48.4577 10.079 48.9369 9.52681C49.6555 8.71431 49.9993 7.62049 49.8639 6.53715L49.2078 1.3083C49.1453 0.797621 48.6976 0.401855 48.1769 0.401855H44.0104C43.4897 0.401855 43.0415 0.79762 42.979 1.31831L42.3229 6.54716C42.1875 7.6305 42.5208 8.71385 43.2499 9.53682C43.7291 10.089 44.3642 10.4638 45.0518 10.6616V25.4012H42.9686C42.396 25.4012 41.9268 25.8699 41.9268 26.4431V39.9839C41.9268 42.286 43.7911 44.1504 46.0933 44.1504C48.3953 44.1504 50.2598 42.2861 50.2598 39.9839L50.2602 26.4418C50.2602 25.8692 49.7915 25.4005 49.2184 25.4005L49.2182 25.401ZM44.8018 8.1517C44.4685 7.77692 44.3226 7.29771 44.3851 6.7975L44.9267 2.48512H47.2498L47.7915 6.80799C47.8539 7.30819 47.708 7.78691 47.3747 8.1622C46.7181 8.90176 45.4684 8.90175 44.8018 8.1517ZM48.1767 39.9843C48.1767 41.1301 47.2393 42.0675 46.0935 42.0675C44.9478 42.0675 44.0103 41.13 44.0103 39.9843V27.4846H48.1768L48.1767 39.9843Z" fill="white"/>
<path d="M7.55191 7.69397C5.83345 7.69397 4.42676 9.10018 4.42676 10.8191C4.42676 12.5376 5.83297 13.9443 7.55191 13.9443C9.27037 13.9443 10.6771 12.5381 10.6771 10.8191C10.6771 9.10018 9.27049 7.69397 7.55191 7.69397ZM7.55191 11.8605C6.97925 11.8605 6.51005 11.3918 6.51005 10.8186C6.51005 10.2459 6.97876 9.77675 7.55191 9.77675C8.12458 9.77675 8.59378 10.2455 8.59378 10.8186C8.5933 11.3918 8.12458 11.8605 7.55191 11.8605Z" fill="white"/>
<path d="M15.8849 7.69397C14.1665 7.69397 12.7598 9.10018 12.7598 10.8191C12.7598 12.5376 14.166 13.9443 15.8849 13.9443C17.6034 13.9443 19.0101 12.5381 19.0101 10.8191C19.0101 9.10018 17.6039 7.69397 15.8849 7.69397ZM15.8849 11.8605C15.3123 11.8605 14.8431 11.3918 14.8431 10.8186C14.8431 10.2459 15.3118 9.77675 15.8849 9.77675C16.4576 9.77675 16.9268 10.2455 16.9268 10.8186C16.9268 11.3918 16.4581 11.8605 15.8849 11.8605Z" fill="white"/>
<path d="M24.217 7.69397C22.4985 7.69397 21.0918 9.10018 21.0918 10.8191C21.0918 12.5376 22.498 13.9443 24.217 13.9443C25.9354 13.9443 27.3421 12.5381 27.3421 10.8191C27.3421 9.10018 25.9359 7.69397 24.217 7.69397ZM24.217 11.8605C23.6443 11.8605 23.1751 11.3918 23.1751 10.8186C23.1751 10.2459 23.6438 9.77675 24.217 9.77675C24.7896 9.77675 25.2588 10.2455 25.2588 10.8186C25.2588 11.3918 24.7901 11.8605 24.217 11.8605Z" fill="white"/>
<path d="M1.30211 34.7757H38.801C39.3737 34.7757 39.8429 34.307 39.8429 33.7338L39.8424 21.2342C39.8424 20.6615 39.3737 20.1923 38.8005 20.1923H35.6754V18.1091H38.8005C39.3732 18.1091 39.8424 17.6404 39.8424 17.0673V4.56884C39.8424 3.99618 39.3737 3.52698 38.8005 3.52698H1.30163C0.728966 3.52698 0.259766 3.99569 0.259766 4.56884V17.0685C0.259766 17.6411 0.728478 18.1103 1.30163 18.1103H4.42678V20.1935H1.30163C0.728966 20.1935 0.259766 20.6622 0.259766 21.2354V33.735C0.259766 34.3077 0.728478 34.7764 1.30163 34.7764L1.30211 34.7757ZM2.34348 16.0262V5.60953H37.7587V16.0257L2.34348 16.0262ZM33.5926 18.1094V20.1926H6.50962V18.1094H33.5926ZM2.34348 22.2759H37.7587V32.6921H2.34348V22.2759Z" fill="white"/>
<path d="M7.55191 24.3597C5.83345 24.3597 4.42676 25.7659 4.42676 27.4849C4.42676 29.2033 5.83297 30.61 7.55191 30.61C9.27037 30.61 10.6771 29.2038 10.6771 27.4849C10.6771 25.7659 9.27049 24.3597 7.55191 24.3597ZM7.55191 28.5262C6.97925 28.5262 6.51005 28.0575 6.51005 27.4844C6.51005 26.9117 6.97876 26.4425 7.55191 26.4425C8.12458 26.4425 8.59378 26.9112 8.59378 27.4844C8.5933 28.0575 8.12458 28.5262 7.55191 28.5262Z" fill="white"/>
<path d="M15.8849 24.3597C14.1665 24.3597 12.7598 25.7659 12.7598 27.4849C12.7598 29.2033 14.166 30.61 15.8849 30.61C17.6034 30.61 19.0101 29.2038 19.0101 27.4849C19.0101 25.7659 17.6039 24.3597 15.8849 24.3597ZM15.8849 28.5262C15.3123 28.5262 14.8431 28.0575 14.8431 27.4844C14.8431 26.9117 15.3118 26.4425 15.8849 26.4425C16.4576 26.4425 16.9268 26.9112 16.9268 27.4844C16.9268 28.0575 16.4581 28.5262 15.8849 28.5262Z" fill="white"/>
<path d="M24.217 24.3597C22.4985 24.3597 21.0918 25.7659 21.0918 27.4849C21.0918 29.2033 22.498 30.61 24.217 30.61C25.9354 30.61 27.3421 29.2038 27.3421 27.4849C27.3421 25.7659 25.9359 24.3597 24.217 24.3597ZM24.217 28.5262C23.6443 28.5262 23.1751 28.0575 23.1751 27.4844C23.1751 26.9117 23.6438 26.4425 24.217 26.4425C24.7896 26.4425 25.2588 26.9112 25.2588 27.4844C25.2588 28.0575 24.7901 28.5262 24.217 28.5262Z" fill="white"/>
</g>
<defs>
<clipPath id="clip0_140_26">
<rect width="51" height="45" fill="white"/>
</clipPath>
</defs>
</svg>
