<svg width="51" height="51" viewBox="0 0 51 51" fill="none" xmlns="http://www.w3.org/2000/svg">
<g clip-path="url(#clip0_144_36)">
<path d="M28.3895 0.265381H3.3898C2.81665 0.265381 2.34792 0.7341 2.34792 1.30726V16.9321H1.30653C0.733856 16.9321 0.264648 17.4008 0.264648 17.9739C0.264648 20.8488 2.59775 23.1824 5.47308 23.1824H26.3065C29.1814 23.1824 31.515 20.8493 31.515 17.9739C31.515 17.4013 31.0462 16.9321 30.4731 16.9321H29.4312V1.30726C29.4312 0.734112 28.9625 0.265381 28.3898 0.265381H28.3895ZM4.43105 2.3486H27.347V16.9309L4.43105 16.9314V2.3486ZM26.3058 21.0984H5.47229C4.11806 21.0984 2.95133 20.2234 2.52458 19.0151H29.2527C28.8255 20.2234 27.6586 21.0984 26.305 21.0984H26.3058Z" fill="white"/>
<path d="M49.2232 44.0149H48.1814L48.1818 28.3901C48.1818 27.8175 47.7131 27.3483 47.14 27.3483H22.1403C21.5676 27.3483 21.0984 27.817 21.0984 28.3901V44.0149H20.0565C19.4839 44.0149 19.0146 44.4837 19.0146 45.0568C19.0146 47.9317 21.3477 50.2652 24.2231 50.2652H45.0565C47.9314 50.2652 50.265 47.9321 50.265 45.0568C50.2654 44.4837 49.7967 44.0149 49.2236 44.0149H49.2232ZM23.1823 29.4314H46.0983V44.0137L23.1823 44.0142V29.4314ZM45.057 48.1811H24.2236C22.8693 48.1811 21.7026 47.3062 21.2759 46.0979H48.004C47.5773 47.3062 46.4104 48.1811 45.0563 48.1811H45.057Z" fill="white"/>
<path d="M39.1081 19.3168C38.7018 19.723 38.7018 20.3791 39.1081 20.7854L43.2746 24.9519C43.3786 25.0559 43.4935 25.1288 43.6184 25.1813C43.7438 25.2333 43.8793 25.2647 44.0147 25.2647C44.1501 25.2647 44.2855 25.2333 44.4104 25.1813C44.5249 25.1293 44.6293 25.0564 44.7128 24.9729C44.7233 24.9624 44.7337 24.9624 44.7442 24.9519L48.9108 20.7854C49.3171 20.3791 49.3171 19.723 48.9108 19.3168C48.5045 18.9105 47.8484 18.9105 47.4422 19.3168L44.9941 21.7649C44.4 14.6606 39.3584 9.64001 32.5565 9.64001C31.9839 9.64001 31.5146 10.1087 31.5146 10.6819C31.5146 11.2546 31.9834 11.7238 32.5565 11.7238C38.1087 11.7238 42.2648 15.8069 42.8899 21.6299L40.5878 19.3278C40.1815 18.9106 39.5144 18.9106 39.1082 19.3168L39.1081 19.3168Z" fill="white"/>
<path d="M17.9736 38.8063C12.3799 38.8063 7.81757 34.3793 7.5777 28.8482L9.94229 31.2127C10.1507 31.4106 10.4115 31.5146 10.6823 31.5146C10.9532 31.5146 11.2135 31.4106 11.4219 31.2123C11.8282 30.806 11.8282 30.1499 11.4219 29.7437L7.25533 25.5771C7.24484 25.5666 7.23435 25.5666 7.22386 25.5561C7.12992 25.4727 7.03646 25.3997 6.92154 25.3477C6.91105 25.3477 6.90056 25.3477 6.89007 25.3372C6.78612 25.2958 6.6712 25.2748 6.56726 25.2748C6.52578 25.2748 6.49431 25.2748 6.46331 25.2853C6.37987 25.2958 6.28641 25.3063 6.20297 25.3372C6.17149 25.3477 6.13001 25.3582 6.09902 25.3687C5.98458 25.4207 5.88015 25.4832 5.78669 25.5771L1.62012 29.7437C1.21387 30.1499 1.21387 30.806 1.62012 31.2123C2.02638 31.6185 2.6825 31.6185 3.08873 31.2123L5.48433 28.8167C5.70272 35.5147 11.2235 40.8895 17.9732 40.8895C18.5458 40.8895 19.0151 40.4208 19.0151 39.8476C19.0151 39.275 18.5463 38.8062 17.9732 38.8062L17.9736 38.8063Z" fill="white"/>
</g>
<defs>
<clipPath id="clip0_144_36">
<rect width="51" height="51" fill="white"/>
</clipPath>
</defs>
</svg>
