<svg width="47" height="26" viewBox="0 0 47 26" fill="none" xmlns="http://www.w3.org/2000/svg">
<path d="M44.9134 4.05109L36.5383 6.57002V1.12799C36.5383 0.599373 36.1056 0.16626 35.5765 0.16626H0.961732C0.433113 0.16626 0 0.598922 0 1.12799V24.2045C0 24.7331 0.432662 25.1663 0.961732 25.1663H35.5765C36.1052 25.1663 36.5383 24.7336 36.5383 24.2045V18.7625L44.913 21.2722C45.0089 21.31 45.0956 21.3197 45.1916 21.3197C45.3936 21.3197 45.5956 21.2524 45.7686 21.1274C46.009 20.9447 46.1533 20.6564 46.1533 20.358V4.97402C46.1533 4.66635 46.009 4.3873 45.7686 4.20464C45.5186 4.02198 45.2013 3.96432 44.913 4.05103L44.9134 4.05109ZM34.6152 7.85838V23.2424L1.9238 23.2428V2.08969H34.6152V7.85838ZM44.2307 19.0699L36.5386 16.7622V8.57986L44.2307 6.27221V19.0699Z" fill="white"/>
<path d="M4.80841 21.3202H31.7307C32.2593 21.3202 32.6924 20.8875 32.6924 20.3584V16.5124C32.6924 15.9838 32.2597 15.5507 31.7307 15.5507L4.80841 15.5511C4.27979 15.5511 3.84668 15.9838 3.84668 16.5128V20.3589C3.84668 20.8875 4.27934 21.3202 4.80841 21.3202ZM25.9041 17.4741H30.7691V19.3971H25.9036L25.9041 17.4741ZM19.1733 17.4741H23.9811V19.3971H19.1733V17.4741ZM12.4426 17.4741H17.2504V19.3971H12.4426V17.4741ZM5.76945 17.4741H10.5195V19.3971H5.76945V17.4741Z" fill="white"/>
<path d="M4.80841 13.6288H22.1158C22.6444 13.6288 23.0775 13.1961 23.0775 12.667V4.97492C23.0775 4.4463 22.6449 4.01318 22.1158 4.01318H4.80841C4.27979 4.01318 3.84668 4.44585 3.84668 4.97492V12.667C3.84668 13.1956 4.27934 13.6288 4.80841 13.6288ZM5.76969 5.9362H21.1548V11.7052H5.76969V5.9362Z" fill="white"/>
</svg>
